M48
;GenerationSoftware,Autodesk,EAGLE,9.6.2*%
;CreationDate,2022-11-08T12:21:10Z*%
FMAT,2
ICI,OFF
METRIC,TZ,000.000
T3C0.406
T2C1.016
T1C1.400
%
G90
M71
T1
X66040Y36830
X66040Y40640
X66040Y6350
X66040Y2540
T2
X5326Y6874
X3390Y35140
X3390Y37680
X3390Y40220
X24780Y22740
X24780Y25280
X24780Y27820
X5580Y2540
X3040Y2540
X2786Y6874
T3
X9906Y41910
X16002Y4826
X5334Y11430
X9652Y8636
X47498Y30734
X7620Y14732
X13716Y12192
X2794Y26162
X7112Y7874
X7112Y4064
X4826Y27178
X13970Y15519
X5775Y36068
X12954Y40386
X41148Y1778
X6604Y19558
X16510Y20599
X6858Y16307
X49530Y27940
X24892Y36830
X7620Y25400
X3302Y23368
X58166Y19558
X68578Y18542
X57150Y14224
X54356Y8636
X49530Y21336
X60452Y8382
X62484Y4826
X26162Y10668
X48260Y34544
X1778Y29718
X2032Y12700
X44704Y1778
X29464Y18796
X38100Y1778
X61214Y36576
X54864Y17780
X59436Y13462
X58166Y36322
X15494Y42418
X32512Y22352
M30