G04 EAGLE Gerber RS-274X export*
G75*
%MOMM*%
%FSLAX34Y34*%
%LPD*%
%INBottom Copper*%
%IPPOS*%
%AMOC8*
5,1,8,0,0,1.08239X$1,22.5*%
G01*
%ADD10C,1.524000*%
%ADD11C,2.540000*%
%ADD12C,0.812800*%
%ADD13C,0.254000*%

G36*
X689200Y2045D02*
X689200Y2045D01*
X689299Y2048D01*
X689357Y2065D01*
X689418Y2073D01*
X689510Y2109D01*
X689605Y2137D01*
X689657Y2167D01*
X689713Y2190D01*
X689793Y2248D01*
X689879Y2298D01*
X689954Y2364D01*
X689971Y2376D01*
X689978Y2386D01*
X689999Y2404D01*
X696858Y9263D01*
X696918Y9341D01*
X696986Y9413D01*
X697015Y9466D01*
X697052Y9514D01*
X697092Y9605D01*
X697140Y9691D01*
X697155Y9750D01*
X697179Y9806D01*
X697194Y9904D01*
X697219Y9999D01*
X697225Y10099D01*
X697229Y10120D01*
X697227Y10132D01*
X697229Y10160D01*
X697229Y424180D01*
X697217Y424278D01*
X697214Y424377D01*
X697197Y424435D01*
X697189Y424496D01*
X697153Y424588D01*
X697125Y424683D01*
X697095Y424735D01*
X697072Y424791D01*
X697014Y424871D01*
X696964Y424957D01*
X696898Y425032D01*
X696886Y425049D01*
X696876Y425056D01*
X696858Y425078D01*
X689238Y432698D01*
X689159Y432758D01*
X689087Y432826D01*
X689034Y432855D01*
X688986Y432892D01*
X688895Y432932D01*
X688809Y432980D01*
X688750Y432995D01*
X688694Y433019D01*
X688596Y433034D01*
X688501Y433059D01*
X688401Y433065D01*
X688380Y433069D01*
X688368Y433067D01*
X688340Y433069D01*
X12700Y433069D01*
X12602Y433057D01*
X12503Y433054D01*
X12445Y433037D01*
X12384Y433029D01*
X12292Y432993D01*
X12197Y432965D01*
X12145Y432935D01*
X12089Y432912D01*
X12009Y432854D01*
X11923Y432804D01*
X11848Y432738D01*
X11831Y432726D01*
X11824Y432716D01*
X11803Y432698D01*
X6723Y427618D01*
X6662Y427539D01*
X6594Y427467D01*
X6565Y427414D01*
X6528Y427366D01*
X6488Y427275D01*
X6440Y427189D01*
X6425Y427130D01*
X6401Y427074D01*
X6386Y426976D01*
X6361Y426881D01*
X6355Y426781D01*
X6351Y426760D01*
X6353Y426748D01*
X6351Y426720D01*
X6351Y10160D01*
X6363Y10062D01*
X6366Y9963D01*
X6383Y9905D01*
X6391Y9844D01*
X6427Y9752D01*
X6455Y9657D01*
X6485Y9605D01*
X6508Y9549D01*
X6566Y9469D01*
X6616Y9383D01*
X6682Y9308D01*
X6694Y9291D01*
X6704Y9284D01*
X6723Y9263D01*
X13581Y2404D01*
X13659Y2344D01*
X13731Y2276D01*
X13784Y2247D01*
X13832Y2210D01*
X13923Y2170D01*
X14009Y2122D01*
X14068Y2107D01*
X14124Y2083D01*
X14222Y2068D01*
X14317Y2043D01*
X14417Y2037D01*
X14438Y2033D01*
X14450Y2035D01*
X14478Y2033D01*
X689102Y2033D01*
X689200Y2045D01*
G37*
%LPC*%
G36*
X135846Y115315D02*
X135846Y115315D01*
X133419Y116321D01*
X132002Y117738D01*
X131924Y117798D01*
X131852Y117866D01*
X131799Y117895D01*
X131751Y117932D01*
X131660Y117972D01*
X131573Y118020D01*
X131515Y118035D01*
X131459Y118059D01*
X131361Y118074D01*
X131265Y118099D01*
X131165Y118105D01*
X131145Y118109D01*
X131132Y118107D01*
X131104Y118109D01*
X72082Y118109D01*
X11429Y178762D01*
X11429Y250498D01*
X20964Y260033D01*
X21024Y260111D01*
X21092Y260183D01*
X21121Y260236D01*
X21158Y260284D01*
X21198Y260375D01*
X21246Y260462D01*
X21261Y260520D01*
X21285Y260576D01*
X21300Y260674D01*
X21325Y260770D01*
X21331Y260870D01*
X21335Y260890D01*
X21333Y260902D01*
X21335Y260930D01*
X21335Y262934D01*
X22341Y265361D01*
X24199Y267219D01*
X26626Y268225D01*
X29254Y268225D01*
X31681Y267219D01*
X33539Y265361D01*
X34133Y263927D01*
X34168Y263866D01*
X34194Y263801D01*
X34246Y263729D01*
X34291Y263651D01*
X34339Y263600D01*
X34380Y263544D01*
X34450Y263487D01*
X34512Y263422D01*
X34572Y263386D01*
X34625Y263341D01*
X34707Y263303D01*
X34783Y263256D01*
X34850Y263235D01*
X34913Y263206D01*
X35001Y263189D01*
X35087Y263162D01*
X35157Y263159D01*
X35226Y263146D01*
X35315Y263151D01*
X35405Y263147D01*
X35473Y263161D01*
X35543Y263166D01*
X35628Y263193D01*
X35716Y263211D01*
X35779Y263242D01*
X35845Y263264D01*
X35921Y263312D01*
X36002Y263351D01*
X36055Y263396D01*
X36114Y263434D01*
X36176Y263499D01*
X36244Y263557D01*
X36284Y263615D01*
X36332Y263665D01*
X36375Y263744D01*
X36427Y263818D01*
X36452Y263883D01*
X36486Y263944D01*
X36508Y264031D01*
X36540Y264115D01*
X36548Y264184D01*
X36565Y264252D01*
X36575Y264413D01*
X36575Y276620D01*
X43420Y283465D01*
X53100Y283465D01*
X59945Y276620D01*
X59945Y276170D01*
X59957Y276072D01*
X59960Y275973D01*
X59977Y275915D01*
X59985Y275855D01*
X60021Y275763D01*
X60049Y275667D01*
X60079Y275615D01*
X60102Y275559D01*
X60160Y275479D01*
X60210Y275394D01*
X60276Y275318D01*
X60288Y275302D01*
X60298Y275294D01*
X60316Y275273D01*
X74613Y260976D01*
X74691Y260916D01*
X74763Y260848D01*
X74816Y260819D01*
X74864Y260782D01*
X74955Y260742D01*
X75042Y260694D01*
X75100Y260679D01*
X75156Y260655D01*
X75254Y260640D01*
X75350Y260615D01*
X75450Y260609D01*
X75470Y260605D01*
X75482Y260607D01*
X75510Y260605D01*
X77514Y260605D01*
X79941Y259599D01*
X81799Y257741D01*
X82805Y255314D01*
X82805Y252686D01*
X81799Y250259D01*
X79941Y248401D01*
X77514Y247395D01*
X74886Y247395D01*
X72459Y248401D01*
X70601Y250259D01*
X69595Y252686D01*
X69595Y254690D01*
X69583Y254788D01*
X69580Y254887D01*
X69563Y254945D01*
X69555Y255005D01*
X69519Y255097D01*
X69491Y255193D01*
X69461Y255245D01*
X69438Y255301D01*
X69380Y255381D01*
X69330Y255466D01*
X69264Y255542D01*
X69252Y255558D01*
X69242Y255566D01*
X69224Y255587D01*
X56056Y268755D01*
X56016Y268786D01*
X55983Y268822D01*
X55891Y268883D01*
X55804Y268950D01*
X55759Y268970D01*
X55717Y268997D01*
X55613Y269033D01*
X55512Y269077D01*
X55463Y269084D01*
X55416Y269100D01*
X55307Y269109D01*
X55198Y269126D01*
X55149Y269122D01*
X55099Y269126D01*
X54991Y269107D01*
X54882Y269097D01*
X54835Y269080D01*
X54786Y269071D01*
X54686Y269026D01*
X54582Y268989D01*
X54541Y268961D01*
X54496Y268941D01*
X54410Y268872D01*
X54319Y268810D01*
X54286Y268773D01*
X54248Y268742D01*
X54182Y268654D01*
X54109Y268572D01*
X54086Y268528D01*
X54056Y268488D01*
X53985Y268343D01*
X53859Y268039D01*
X52442Y266622D01*
X52382Y266544D01*
X52314Y266472D01*
X52285Y266419D01*
X52248Y266371D01*
X52208Y266280D01*
X52160Y266193D01*
X52145Y266135D01*
X52121Y266079D01*
X52106Y265981D01*
X52081Y265885D01*
X52075Y265785D01*
X52071Y265765D01*
X52073Y265752D01*
X52071Y265724D01*
X52071Y164664D01*
X52083Y164566D01*
X52086Y164467D01*
X52103Y164409D01*
X52111Y164349D01*
X52147Y164257D01*
X52175Y164161D01*
X52205Y164109D01*
X52228Y164053D01*
X52286Y163973D01*
X52336Y163888D01*
X52402Y163812D01*
X52414Y163796D01*
X52424Y163788D01*
X52442Y163767D01*
X56833Y159376D01*
X56911Y159316D01*
X56983Y159248D01*
X57036Y159219D01*
X57084Y159182D01*
X57175Y159142D01*
X57262Y159094D01*
X57320Y159079D01*
X57376Y159055D01*
X57474Y159040D01*
X57570Y159015D01*
X57670Y159009D01*
X57690Y159005D01*
X57702Y159007D01*
X57730Y159005D01*
X61215Y159005D01*
X61264Y159011D01*
X61314Y159009D01*
X61421Y159031D01*
X61530Y159045D01*
X61576Y159063D01*
X61625Y159073D01*
X61724Y159121D01*
X61826Y159162D01*
X61866Y159191D01*
X61911Y159213D01*
X61994Y159284D01*
X62083Y159348D01*
X62115Y159387D01*
X62153Y159419D01*
X62216Y159509D01*
X62286Y159593D01*
X62307Y159638D01*
X62336Y159679D01*
X62375Y159782D01*
X62422Y159881D01*
X62431Y159930D01*
X62448Y159976D01*
X62461Y160086D01*
X62481Y160193D01*
X62478Y160243D01*
X62484Y160292D01*
X62468Y160401D01*
X62462Y160511D01*
X62446Y160558D01*
X62439Y160607D01*
X62387Y160760D01*
X61975Y161754D01*
X61975Y164382D01*
X62981Y166809D01*
X64839Y168667D01*
X67266Y169673D01*
X69894Y169673D01*
X72321Y168667D01*
X73738Y167250D01*
X73816Y167190D01*
X73888Y167122D01*
X73941Y167093D01*
X73989Y167056D01*
X74080Y167016D01*
X74167Y166968D01*
X74225Y166953D01*
X74281Y166929D01*
X74379Y166914D01*
X74475Y166889D01*
X74575Y166883D01*
X74595Y166879D01*
X74608Y166881D01*
X74636Y166879D01*
X144540Y166879D01*
X147216Y164202D01*
X147295Y164142D01*
X147367Y164074D01*
X147420Y164045D01*
X147468Y164008D01*
X147559Y163968D01*
X147645Y163920D01*
X147704Y163905D01*
X147759Y163881D01*
X147857Y163866D01*
X147953Y163841D01*
X148053Y163835D01*
X148073Y163831D01*
X148086Y163833D01*
X148114Y163831D01*
X154940Y163831D01*
X155058Y163846D01*
X155177Y163853D01*
X155215Y163866D01*
X155256Y163871D01*
X155366Y163914D01*
X155479Y163951D01*
X155514Y163973D01*
X155551Y163988D01*
X155647Y164057D01*
X155748Y164121D01*
X155776Y164151D01*
X155809Y164174D01*
X155885Y164266D01*
X155966Y164353D01*
X155986Y164388D01*
X156011Y164419D01*
X156062Y164527D01*
X156120Y164631D01*
X156130Y164671D01*
X156147Y164707D01*
X156169Y164824D01*
X156199Y164939D01*
X156203Y164999D01*
X156207Y165019D01*
X156205Y165040D01*
X156209Y165100D01*
X156209Y199785D01*
X156192Y199923D01*
X156179Y200062D01*
X156172Y200081D01*
X156169Y200101D01*
X156118Y200230D01*
X156071Y200361D01*
X156060Y200378D01*
X156052Y200397D01*
X155971Y200509D01*
X155893Y200624D01*
X155877Y200638D01*
X155866Y200654D01*
X155758Y200743D01*
X155654Y200835D01*
X155636Y200844D01*
X155621Y200857D01*
X155495Y200916D01*
X155371Y200979D01*
X155351Y200984D01*
X155333Y200992D01*
X155197Y201018D01*
X155061Y201049D01*
X155040Y201048D01*
X155021Y201052D01*
X154882Y201043D01*
X154743Y201039D01*
X154723Y201034D01*
X154703Y201032D01*
X154571Y200990D01*
X154437Y200951D01*
X154420Y200941D01*
X154401Y200934D01*
X154283Y200860D01*
X154163Y200789D01*
X154142Y200771D01*
X154132Y200764D01*
X154118Y200749D01*
X154043Y200683D01*
X145129Y191769D01*
X72095Y191769D01*
X71997Y191757D01*
X71898Y191754D01*
X71840Y191737D01*
X71780Y191729D01*
X71688Y191693D01*
X71593Y191665D01*
X71541Y191635D01*
X71484Y191612D01*
X71404Y191554D01*
X71319Y191504D01*
X71244Y191438D01*
X71227Y191426D01*
X71219Y191416D01*
X71198Y191398D01*
X69781Y189981D01*
X67354Y188975D01*
X64726Y188975D01*
X62299Y189981D01*
X60441Y191839D01*
X59435Y194266D01*
X59435Y196894D01*
X60441Y199321D01*
X62299Y201179D01*
X64726Y202185D01*
X67354Y202185D01*
X69781Y201179D01*
X71198Y199762D01*
X71276Y199702D01*
X71348Y199634D01*
X71401Y199605D01*
X71449Y199568D01*
X71540Y199528D01*
X71627Y199480D01*
X71685Y199465D01*
X71741Y199441D01*
X71839Y199426D01*
X71935Y199401D01*
X72035Y199395D01*
X72055Y199391D01*
X72067Y199393D01*
X72095Y199391D01*
X141446Y199391D01*
X141544Y199403D01*
X141643Y199406D01*
X141702Y199423D01*
X141762Y199431D01*
X141854Y199467D01*
X141949Y199495D01*
X142001Y199525D01*
X142057Y199548D01*
X142137Y199606D01*
X142223Y199656D01*
X142298Y199722D01*
X142315Y199734D01*
X142323Y199744D01*
X142344Y199762D01*
X160260Y217679D01*
X232468Y217679D01*
X232605Y217696D01*
X232744Y217709D01*
X232763Y217716D01*
X232783Y217719D01*
X232912Y217770D01*
X233043Y217817D01*
X233060Y217828D01*
X233079Y217836D01*
X233191Y217917D01*
X233306Y217995D01*
X233320Y218011D01*
X233336Y218022D01*
X233425Y218130D01*
X233517Y218234D01*
X233526Y218252D01*
X233539Y218267D01*
X233598Y218393D01*
X233661Y218517D01*
X233666Y218537D01*
X233674Y218555D01*
X233701Y218692D01*
X233731Y218827D01*
X233730Y218848D01*
X233734Y218867D01*
X233726Y219006D01*
X233721Y219145D01*
X233716Y219165D01*
X233715Y219185D01*
X233672Y219317D01*
X233633Y219451D01*
X233623Y219468D01*
X233616Y219487D01*
X233542Y219605D01*
X233471Y219725D01*
X233453Y219746D01*
X233446Y219756D01*
X233431Y219770D01*
X233365Y219845D01*
X231566Y221644D01*
X230019Y225379D01*
X230019Y229421D01*
X231566Y233156D01*
X234424Y236014D01*
X238159Y237561D01*
X257441Y237561D01*
X261176Y236014D01*
X264034Y233156D01*
X265581Y229421D01*
X265581Y225379D01*
X264034Y221644D01*
X262235Y219845D01*
X262150Y219736D01*
X262061Y219629D01*
X262052Y219610D01*
X262040Y219594D01*
X261985Y219466D01*
X261926Y219341D01*
X261922Y219321D01*
X261914Y219302D01*
X261892Y219164D01*
X261866Y219028D01*
X261867Y219008D01*
X261864Y218988D01*
X261877Y218849D01*
X261885Y218711D01*
X261892Y218692D01*
X261894Y218672D01*
X261941Y218540D01*
X261984Y218409D01*
X261994Y218391D01*
X262001Y218372D01*
X262079Y218257D01*
X262154Y218140D01*
X262168Y218126D01*
X262180Y218109D01*
X262284Y218017D01*
X262385Y217922D01*
X262403Y217912D01*
X262418Y217899D01*
X262542Y217835D01*
X262664Y217768D01*
X262683Y217763D01*
X262701Y217754D01*
X262837Y217724D01*
X262972Y217689D01*
X263000Y217687D01*
X263012Y217684D01*
X263032Y217685D01*
X263132Y217679D01*
X270310Y217679D01*
X293053Y194936D01*
X293131Y194876D01*
X293203Y194808D01*
X293256Y194779D01*
X293304Y194742D01*
X293395Y194702D01*
X293482Y194654D01*
X293540Y194639D01*
X293596Y194615D01*
X293694Y194600D01*
X293790Y194575D01*
X293890Y194569D01*
X293910Y194565D01*
X293922Y194567D01*
X293950Y194565D01*
X295954Y194565D01*
X298381Y193559D01*
X300239Y191701D01*
X300651Y190707D01*
X300676Y190664D01*
X300693Y190617D01*
X300754Y190526D01*
X300809Y190430D01*
X300843Y190395D01*
X300871Y190354D01*
X300954Y190281D01*
X301030Y190202D01*
X301072Y190176D01*
X301110Y190143D01*
X301207Y190093D01*
X301301Y190036D01*
X301349Y190021D01*
X301393Y189999D01*
X301500Y189975D01*
X301605Y189942D01*
X301655Y189940D01*
X301703Y189929D01*
X301813Y189932D01*
X301923Y189927D01*
X301971Y189937D01*
X302021Y189939D01*
X302126Y189969D01*
X302234Y189991D01*
X302279Y190013D01*
X302327Y190027D01*
X302421Y190083D01*
X302520Y190131D01*
X302558Y190163D01*
X302600Y190189D01*
X302721Y190295D01*
X313064Y200637D01*
X313124Y200715D01*
X313192Y200788D01*
X313221Y200841D01*
X313258Y200888D01*
X313298Y200979D01*
X313346Y201066D01*
X313361Y201125D01*
X313385Y201180D01*
X313400Y201278D01*
X313425Y201374D01*
X313431Y201474D01*
X313435Y201494D01*
X313433Y201507D01*
X313435Y201535D01*
X313435Y228360D01*
X320280Y235205D01*
X396930Y235205D01*
X397028Y235217D01*
X397127Y235220D01*
X397185Y235237D01*
X397245Y235245D01*
X397337Y235281D01*
X397433Y235309D01*
X397485Y235339D01*
X397541Y235362D01*
X397621Y235420D01*
X397706Y235470D01*
X397782Y235536D01*
X397798Y235548D01*
X397806Y235558D01*
X397827Y235576D01*
X468004Y305753D01*
X468064Y305831D01*
X468132Y305903D01*
X468156Y305946D01*
X468177Y305972D01*
X468183Y305984D01*
X468198Y306004D01*
X468238Y306095D01*
X468286Y306182D01*
X468297Y306226D01*
X468313Y306260D01*
X468316Y306275D01*
X468325Y306296D01*
X468340Y306394D01*
X468365Y306490D01*
X468369Y306553D01*
X468373Y306572D01*
X468372Y306591D01*
X468375Y306610D01*
X468373Y306622D01*
X468375Y306650D01*
X468375Y308654D01*
X468787Y309648D01*
X468800Y309696D01*
X468822Y309741D01*
X468842Y309849D01*
X468871Y309955D01*
X468872Y310005D01*
X468881Y310054D01*
X468874Y310163D01*
X468876Y310273D01*
X468865Y310321D01*
X468862Y310371D01*
X468828Y310475D01*
X468802Y310582D01*
X468779Y310626D01*
X468764Y310673D01*
X468705Y310766D01*
X468653Y310863D01*
X468620Y310900D01*
X468593Y310942D01*
X468513Y311017D01*
X468439Y311099D01*
X468398Y311126D01*
X468362Y311160D01*
X468266Y311213D01*
X468174Y311273D01*
X468127Y311290D01*
X468083Y311314D01*
X467977Y311341D01*
X467873Y311377D01*
X467823Y311381D01*
X467775Y311393D01*
X467615Y311403D01*
X379168Y311403D01*
X372109Y318462D01*
X372109Y365760D01*
X372094Y365878D01*
X372087Y365997D01*
X372074Y366035D01*
X372069Y366076D01*
X372026Y366186D01*
X371989Y366299D01*
X371967Y366334D01*
X371952Y366371D01*
X371883Y366467D01*
X371819Y366568D01*
X371789Y366596D01*
X371766Y366629D01*
X371674Y366705D01*
X371587Y366786D01*
X371552Y366806D01*
X371521Y366831D01*
X371413Y366882D01*
X371309Y366940D01*
X371269Y366950D01*
X371233Y366967D01*
X371116Y366989D01*
X371001Y367019D01*
X370941Y367023D01*
X370921Y367027D01*
X370900Y367025D01*
X370840Y367029D01*
X256391Y367029D01*
X256361Y367026D01*
X256332Y367028D01*
X256204Y367006D01*
X256075Y366989D01*
X256048Y366979D01*
X256019Y366974D01*
X255900Y366920D01*
X255779Y366872D01*
X255756Y366855D01*
X255729Y366843D01*
X255627Y366762D01*
X255522Y366686D01*
X255503Y366663D01*
X255480Y366644D01*
X255402Y366541D01*
X255319Y366441D01*
X255307Y366414D01*
X255289Y366390D01*
X255218Y366246D01*
X254519Y364559D01*
X252661Y362701D01*
X250234Y361695D01*
X247606Y361695D01*
X245179Y362701D01*
X243321Y364559D01*
X242315Y366986D01*
X242315Y369614D01*
X243321Y372041D01*
X245179Y373899D01*
X247606Y374905D01*
X250234Y374905D01*
X250614Y374747D01*
X250623Y374745D01*
X250631Y374740D01*
X250775Y374703D01*
X250920Y374663D01*
X250930Y374663D01*
X250939Y374661D01*
X251099Y374651D01*
X377498Y374651D01*
X379731Y372418D01*
X379731Y322144D01*
X379743Y322046D01*
X379746Y321947D01*
X379763Y321889D01*
X379771Y321829D01*
X379807Y321737D01*
X379835Y321641D01*
X379865Y321589D01*
X379888Y321533D01*
X379946Y321453D01*
X379996Y321368D01*
X380062Y321292D01*
X380074Y321276D01*
X380084Y321268D01*
X380102Y321247D01*
X381953Y319396D01*
X382031Y319336D01*
X382103Y319268D01*
X382156Y319239D01*
X382204Y319202D01*
X382295Y319162D01*
X382382Y319114D01*
X382440Y319099D01*
X382496Y319075D01*
X382594Y319060D01*
X382690Y319035D01*
X382790Y319029D01*
X382810Y319025D01*
X382822Y319027D01*
X382850Y319025D01*
X479820Y319025D01*
X486665Y312180D01*
X486665Y293950D01*
X486677Y293852D01*
X486680Y293753D01*
X486687Y293731D01*
X486687Y293723D01*
X486697Y293691D01*
X486705Y293635D01*
X486741Y293543D01*
X486769Y293447D01*
X486799Y293395D01*
X486822Y293339D01*
X486880Y293259D01*
X486930Y293174D01*
X486996Y293098D01*
X487008Y293082D01*
X487018Y293074D01*
X487036Y293053D01*
X493713Y286376D01*
X493791Y286316D01*
X493863Y286248D01*
X493916Y286219D01*
X493964Y286182D01*
X494055Y286142D01*
X494142Y286094D01*
X494200Y286079D01*
X494256Y286055D01*
X494354Y286040D01*
X494450Y286015D01*
X494550Y286009D01*
X494570Y286005D01*
X494582Y286007D01*
X494610Y286005D01*
X496614Y286005D01*
X499041Y284999D01*
X500899Y283141D01*
X501905Y280714D01*
X501905Y278086D01*
X500899Y275659D01*
X499041Y273801D01*
X496614Y272795D01*
X493986Y272795D01*
X491559Y273801D01*
X489701Y275659D01*
X488695Y278086D01*
X488695Y280090D01*
X488683Y280188D01*
X488680Y280287D01*
X488663Y280345D01*
X488655Y280405D01*
X488619Y280497D01*
X488591Y280593D01*
X488561Y280645D01*
X488538Y280701D01*
X488480Y280781D01*
X488430Y280866D01*
X488364Y280942D01*
X488352Y280958D01*
X488342Y280966D01*
X488324Y280987D01*
X479043Y290268D01*
X479043Y299975D01*
X479037Y300024D01*
X479039Y300074D01*
X479017Y300181D01*
X479003Y300290D01*
X478985Y300336D01*
X478975Y300385D01*
X478927Y300484D01*
X478886Y300586D01*
X478857Y300626D01*
X478835Y300671D01*
X478764Y300754D01*
X478700Y300843D01*
X478661Y300875D01*
X478629Y300913D01*
X478539Y300976D01*
X478455Y301046D01*
X478410Y301067D01*
X478369Y301096D01*
X478266Y301135D01*
X478167Y301182D01*
X478118Y301191D01*
X478072Y301208D01*
X477962Y301221D01*
X477855Y301241D01*
X477805Y301238D01*
X477756Y301244D01*
X477647Y301228D01*
X477537Y301222D01*
X477490Y301206D01*
X477441Y301199D01*
X477288Y301147D01*
X476294Y300735D01*
X474290Y300735D01*
X474192Y300723D01*
X474093Y300720D01*
X474035Y300703D01*
X473975Y300695D01*
X473883Y300659D01*
X473787Y300631D01*
X473735Y300601D01*
X473679Y300578D01*
X473599Y300520D01*
X473514Y300470D01*
X473438Y300404D01*
X473422Y300392D01*
X473414Y300382D01*
X473393Y300364D01*
X400612Y227583D01*
X332485Y227583D01*
X332436Y227577D01*
X332386Y227579D01*
X332279Y227557D01*
X332170Y227543D01*
X332124Y227525D01*
X332075Y227515D01*
X331976Y227467D01*
X331874Y227426D01*
X331834Y227397D01*
X331789Y227375D01*
X331706Y227304D01*
X331617Y227240D01*
X331585Y227201D01*
X331547Y227169D01*
X331484Y227079D01*
X331414Y226995D01*
X331393Y226950D01*
X331364Y226909D01*
X331325Y226806D01*
X331278Y226707D01*
X331269Y226658D01*
X331252Y226612D01*
X331239Y226502D01*
X331219Y226395D01*
X331222Y226345D01*
X331216Y226296D01*
X331232Y226187D01*
X331238Y226077D01*
X331254Y226030D01*
X331261Y225981D01*
X331313Y225828D01*
X331725Y224834D01*
X331725Y222830D01*
X331737Y222732D01*
X331740Y222633D01*
X331757Y222575D01*
X331765Y222515D01*
X331801Y222423D01*
X331829Y222327D01*
X331859Y222275D01*
X331882Y222219D01*
X331940Y222139D01*
X331990Y222054D01*
X332056Y221978D01*
X332068Y221962D01*
X332078Y221954D01*
X332096Y221933D01*
X336487Y217542D01*
X336565Y217482D01*
X336637Y217414D01*
X336690Y217385D01*
X336738Y217348D01*
X336829Y217308D01*
X336916Y217260D01*
X336974Y217245D01*
X337030Y217221D01*
X337128Y217206D01*
X337224Y217181D01*
X337324Y217175D01*
X337344Y217171D01*
X337356Y217173D01*
X337384Y217171D01*
X489244Y217171D01*
X489343Y217183D01*
X489442Y217186D01*
X489500Y217203D01*
X489560Y217211D01*
X489652Y217247D01*
X489747Y217275D01*
X489799Y217305D01*
X489856Y217328D01*
X489936Y217386D01*
X490021Y217436D01*
X490097Y217502D01*
X490113Y217514D01*
X490121Y217524D01*
X490142Y217542D01*
X491559Y218959D01*
X493986Y219965D01*
X496614Y219965D01*
X499041Y218959D01*
X500899Y217101D01*
X501905Y214674D01*
X501905Y212046D01*
X500899Y209619D01*
X499041Y207761D01*
X496614Y206755D01*
X493986Y206755D01*
X491559Y207761D01*
X490142Y209178D01*
X490064Y209238D01*
X489992Y209306D01*
X489939Y209335D01*
X489891Y209372D01*
X489800Y209412D01*
X489713Y209460D01*
X489655Y209475D01*
X489599Y209499D01*
X489501Y209514D01*
X489405Y209539D01*
X489305Y209545D01*
X489285Y209549D01*
X489272Y209547D01*
X489244Y209549D01*
X333702Y209549D01*
X326707Y216544D01*
X326629Y216604D01*
X326557Y216672D01*
X326504Y216701D01*
X326456Y216738D01*
X326365Y216778D01*
X326278Y216826D01*
X326220Y216841D01*
X326164Y216865D01*
X326066Y216880D01*
X325970Y216905D01*
X325870Y216911D01*
X325850Y216915D01*
X325838Y216913D01*
X325810Y216915D01*
X323806Y216915D01*
X322812Y217327D01*
X322764Y217340D01*
X322719Y217362D01*
X322611Y217382D01*
X322505Y217411D01*
X322455Y217412D01*
X322406Y217421D01*
X322297Y217414D01*
X322187Y217416D01*
X322139Y217405D01*
X322089Y217402D01*
X321985Y217368D01*
X321878Y217342D01*
X321834Y217319D01*
X321787Y217304D01*
X321694Y217245D01*
X321597Y217193D01*
X321560Y217160D01*
X321518Y217133D01*
X321443Y217053D01*
X321361Y216979D01*
X321334Y216938D01*
X321300Y216902D01*
X321247Y216806D01*
X321187Y216714D01*
X321170Y216667D01*
X321146Y216623D01*
X321119Y216517D01*
X321083Y216413D01*
X321079Y216363D01*
X321067Y216315D01*
X321057Y216155D01*
X321057Y197852D01*
X266714Y143509D01*
X82256Y143509D01*
X82157Y143497D01*
X82058Y143494D01*
X82000Y143477D01*
X81940Y143469D01*
X81848Y143433D01*
X81753Y143405D01*
X81701Y143375D01*
X81644Y143352D01*
X81564Y143294D01*
X81479Y143244D01*
X81403Y143178D01*
X81387Y143166D01*
X81379Y143156D01*
X81358Y143138D01*
X79941Y141721D01*
X77514Y140715D01*
X74886Y140715D01*
X72459Y141721D01*
X70601Y143579D01*
X69595Y146006D01*
X69595Y148634D01*
X70007Y149628D01*
X70020Y149676D01*
X70042Y149721D01*
X70062Y149829D01*
X70091Y149935D01*
X70092Y149985D01*
X70101Y150034D01*
X70094Y150143D01*
X70096Y150253D01*
X70085Y150301D01*
X70082Y150351D01*
X70048Y150455D01*
X70022Y150562D01*
X69999Y150606D01*
X69984Y150653D01*
X69925Y150746D01*
X69873Y150843D01*
X69840Y150880D01*
X69813Y150922D01*
X69733Y150997D01*
X69659Y151079D01*
X69618Y151106D01*
X69582Y151140D01*
X69486Y151193D01*
X69394Y151253D01*
X69347Y151270D01*
X69303Y151294D01*
X69197Y151321D01*
X69093Y151357D01*
X69043Y151361D01*
X68995Y151373D01*
X68835Y151383D01*
X54048Y151383D01*
X44449Y160982D01*
X44449Y236656D01*
X44432Y236794D01*
X44419Y236932D01*
X44412Y236951D01*
X44409Y236971D01*
X44358Y237101D01*
X44311Y237232D01*
X44300Y237248D01*
X44292Y237267D01*
X44211Y237380D01*
X44133Y237495D01*
X44117Y237508D01*
X44106Y237524D01*
X43998Y237613D01*
X43894Y237705D01*
X43876Y237714D01*
X43861Y237727D01*
X43735Y237786D01*
X43611Y237850D01*
X43591Y237854D01*
X43573Y237863D01*
X43436Y237889D01*
X43301Y237919D01*
X43280Y237919D01*
X43261Y237923D01*
X43122Y237914D01*
X42983Y237910D01*
X42963Y237904D01*
X42943Y237903D01*
X42811Y237860D01*
X42677Y237821D01*
X42660Y237811D01*
X42641Y237805D01*
X42523Y237730D01*
X42403Y237660D01*
X42382Y237641D01*
X42372Y237635D01*
X42358Y237620D01*
X42283Y237553D01*
X41593Y236864D01*
X39996Y235267D01*
X39936Y235189D01*
X39868Y235117D01*
X39839Y235064D01*
X39802Y235016D01*
X39762Y234925D01*
X39714Y234838D01*
X39699Y234780D01*
X39675Y234724D01*
X39660Y234626D01*
X39635Y234530D01*
X39629Y234430D01*
X39625Y234410D01*
X39627Y234398D01*
X39625Y234370D01*
X39625Y232366D01*
X38619Y229939D01*
X36761Y228081D01*
X34334Y227075D01*
X31706Y227075D01*
X29279Y228081D01*
X27421Y229939D01*
X26415Y232366D01*
X26415Y234994D01*
X27421Y237421D01*
X29279Y239279D01*
X31706Y240285D01*
X33710Y240285D01*
X33808Y240297D01*
X33907Y240300D01*
X33965Y240317D01*
X34025Y240325D01*
X34117Y240361D01*
X34213Y240389D01*
X34265Y240419D01*
X34321Y240442D01*
X34401Y240500D01*
X34486Y240550D01*
X34562Y240616D01*
X34578Y240628D01*
X34586Y240638D01*
X34607Y240656D01*
X36204Y242253D01*
X36264Y242331D01*
X36332Y242403D01*
X36361Y242456D01*
X36398Y242504D01*
X36438Y242595D01*
X36486Y242682D01*
X36501Y242740D01*
X36525Y242796D01*
X36540Y242894D01*
X36565Y242990D01*
X36571Y243090D01*
X36575Y243110D01*
X36573Y243122D01*
X36575Y243150D01*
X36575Y258827D01*
X36567Y258897D01*
X36568Y258967D01*
X36547Y259054D01*
X36535Y259143D01*
X36510Y259208D01*
X36493Y259276D01*
X36451Y259355D01*
X36418Y259439D01*
X36377Y259495D01*
X36345Y259557D01*
X36284Y259623D01*
X36232Y259696D01*
X36178Y259741D01*
X36131Y259792D01*
X36056Y259842D01*
X35987Y259899D01*
X35923Y259929D01*
X35865Y259967D01*
X35780Y259996D01*
X35699Y260034D01*
X35630Y260047D01*
X35564Y260070D01*
X35475Y260077D01*
X35387Y260094D01*
X35317Y260090D01*
X35247Y260095D01*
X35159Y260080D01*
X35069Y260074D01*
X35003Y260053D01*
X34934Y260041D01*
X34852Y260004D01*
X34767Y259976D01*
X34708Y259939D01*
X34644Y259910D01*
X34574Y259854D01*
X34498Y259806D01*
X34450Y259755D01*
X34396Y259712D01*
X34341Y259640D01*
X34280Y259575D01*
X34246Y259514D01*
X34204Y259458D01*
X34133Y259313D01*
X33539Y257879D01*
X31681Y256021D01*
X29254Y255015D01*
X27250Y255015D01*
X27152Y255003D01*
X27053Y255000D01*
X26995Y254983D01*
X26935Y254975D01*
X26843Y254939D01*
X26747Y254911D01*
X26695Y254881D01*
X26639Y254858D01*
X26559Y254800D01*
X26474Y254750D01*
X26398Y254684D01*
X26382Y254672D01*
X26374Y254662D01*
X26353Y254644D01*
X19422Y247713D01*
X19362Y247635D01*
X19294Y247563D01*
X19265Y247510D01*
X19228Y247462D01*
X19188Y247371D01*
X19140Y247284D01*
X19125Y247226D01*
X19101Y247170D01*
X19086Y247072D01*
X19061Y246976D01*
X19055Y246876D01*
X19051Y246856D01*
X19053Y246844D01*
X19051Y246816D01*
X19051Y182444D01*
X19063Y182346D01*
X19066Y182247D01*
X19083Y182189D01*
X19091Y182129D01*
X19127Y182037D01*
X19155Y181941D01*
X19185Y181889D01*
X19208Y181833D01*
X19266Y181753D01*
X19316Y181668D01*
X19382Y181592D01*
X19394Y181576D01*
X19404Y181568D01*
X19422Y181547D01*
X74867Y126102D01*
X74945Y126042D01*
X75017Y125974D01*
X75070Y125945D01*
X75118Y125908D01*
X75209Y125868D01*
X75296Y125820D01*
X75354Y125805D01*
X75410Y125781D01*
X75508Y125766D01*
X75604Y125741D01*
X75704Y125735D01*
X75724Y125731D01*
X75736Y125733D01*
X75764Y125731D01*
X131104Y125731D01*
X131203Y125743D01*
X131302Y125746D01*
X131360Y125763D01*
X131420Y125771D01*
X131512Y125807D01*
X131607Y125835D01*
X131659Y125865D01*
X131716Y125888D01*
X131796Y125946D01*
X131881Y125996D01*
X131957Y126062D01*
X131973Y126074D01*
X131981Y126084D01*
X132002Y126102D01*
X133419Y127519D01*
X135846Y128525D01*
X138474Y128525D01*
X140901Y127519D01*
X142759Y125661D01*
X143765Y123234D01*
X143765Y120606D01*
X142759Y118179D01*
X140901Y116321D01*
X138474Y115315D01*
X135846Y115315D01*
G37*
%LPD*%
%LPC*%
G36*
X53779Y7619D02*
X53779Y7619D01*
X50044Y9166D01*
X47186Y12024D01*
X45639Y15759D01*
X45639Y35041D01*
X47186Y38776D01*
X50044Y41634D01*
X53779Y43181D01*
X57821Y43181D01*
X61556Y41634D01*
X62349Y40841D01*
X62458Y40756D01*
X62565Y40667D01*
X62584Y40658D01*
X62600Y40646D01*
X62727Y40591D01*
X62853Y40532D01*
X62873Y40528D01*
X62892Y40520D01*
X63030Y40498D01*
X63166Y40472D01*
X63186Y40473D01*
X63206Y40470D01*
X63345Y40483D01*
X63483Y40491D01*
X63502Y40498D01*
X63522Y40500D01*
X63654Y40547D01*
X63785Y40590D01*
X63803Y40600D01*
X63822Y40607D01*
X63937Y40685D01*
X64054Y40760D01*
X64068Y40774D01*
X64085Y40786D01*
X64177Y40890D01*
X64272Y40991D01*
X64282Y41009D01*
X64295Y41024D01*
X64358Y41148D01*
X64426Y41270D01*
X64431Y41289D01*
X64440Y41307D01*
X64470Y41443D01*
X64505Y41578D01*
X64507Y41606D01*
X64510Y41618D01*
X64509Y41638D01*
X64515Y41738D01*
X64515Y41954D01*
X65521Y44381D01*
X66938Y45798D01*
X66998Y45876D01*
X67066Y45948D01*
X67095Y46001D01*
X67132Y46049D01*
X67172Y46140D01*
X67220Y46227D01*
X67235Y46285D01*
X67259Y46341D01*
X67274Y46439D01*
X67299Y46535D01*
X67305Y46635D01*
X67309Y46655D01*
X67307Y46668D01*
X67309Y46696D01*
X67309Y72684D01*
X67297Y72783D01*
X67294Y72882D01*
X67277Y72940D01*
X67269Y73000D01*
X67233Y73092D01*
X67205Y73187D01*
X67175Y73239D01*
X67152Y73296D01*
X67094Y73376D01*
X67044Y73461D01*
X66978Y73537D01*
X66966Y73553D01*
X66956Y73561D01*
X66938Y73582D01*
X65587Y74932D01*
X65478Y75017D01*
X65371Y75106D01*
X65352Y75115D01*
X65336Y75127D01*
X65209Y75182D01*
X65083Y75241D01*
X65063Y75245D01*
X65044Y75253D01*
X64906Y75275D01*
X64770Y75301D01*
X64750Y75300D01*
X64730Y75303D01*
X64591Y75290D01*
X64453Y75281D01*
X64434Y75275D01*
X64414Y75273D01*
X64282Y75226D01*
X64151Y75183D01*
X64133Y75173D01*
X64114Y75166D01*
X63999Y75088D01*
X63882Y75013D01*
X63868Y74999D01*
X63851Y74987D01*
X63759Y74883D01*
X63664Y74782D01*
X63654Y74764D01*
X63641Y74749D01*
X63577Y74625D01*
X63510Y74503D01*
X63505Y74484D01*
X63496Y74466D01*
X63466Y74330D01*
X63431Y74195D01*
X63429Y74167D01*
X63426Y74155D01*
X63427Y74135D01*
X63421Y74035D01*
X63421Y71279D01*
X55799Y71279D01*
X55799Y86219D01*
X57160Y85776D01*
X58585Y85050D01*
X59879Y84110D01*
X61010Y82979D01*
X61950Y81685D01*
X62488Y80630D01*
X62538Y80556D01*
X62580Y80477D01*
X62627Y80425D01*
X62667Y80367D01*
X62734Y80308D01*
X62794Y80242D01*
X62853Y80203D01*
X62905Y80157D01*
X62985Y80116D01*
X63060Y80067D01*
X63126Y80044D01*
X63189Y80012D01*
X63276Y79993D01*
X63361Y79964D01*
X63430Y79958D01*
X63499Y79943D01*
X63588Y79946D01*
X63678Y79938D01*
X63747Y79950D01*
X63817Y79953D01*
X63903Y79977D01*
X63991Y79993D01*
X64055Y80022D01*
X64122Y80041D01*
X64199Y80087D01*
X64281Y80123D01*
X64336Y80167D01*
X64396Y80203D01*
X64459Y80266D01*
X64529Y80322D01*
X64572Y80378D01*
X64621Y80428D01*
X64667Y80505D01*
X64721Y80576D01*
X64776Y80688D01*
X64783Y80701D01*
X64785Y80708D01*
X64791Y80721D01*
X65521Y82481D01*
X67379Y84339D01*
X69806Y85345D01*
X72434Y85345D01*
X74173Y84624D01*
X74175Y84624D01*
X74179Y84623D01*
X74241Y84606D01*
X74305Y84578D01*
X74393Y84564D01*
X74480Y84540D01*
X74550Y84539D01*
X74619Y84528D01*
X74708Y84537D01*
X74798Y84535D01*
X74866Y84551D01*
X74935Y84558D01*
X75020Y84588D01*
X75107Y84609D01*
X75169Y84642D01*
X75235Y84666D01*
X75309Y84716D01*
X75388Y84758D01*
X75440Y84805D01*
X75498Y84844D01*
X75557Y84912D01*
X75624Y84972D01*
X75662Y85030D01*
X75708Y85083D01*
X75749Y85163D01*
X75798Y85238D01*
X75821Y85304D01*
X75853Y85366D01*
X75873Y85453D01*
X75902Y85538D01*
X75907Y85608D01*
X75923Y85676D01*
X75920Y85766D01*
X75927Y85855D01*
X75915Y85924D01*
X75913Y85994D01*
X75888Y86080D01*
X75873Y86169D01*
X75844Y86233D01*
X75824Y86300D01*
X75805Y86333D01*
X75801Y86343D01*
X75776Y86382D01*
X75742Y86459D01*
X75698Y86513D01*
X75663Y86573D01*
X75636Y86604D01*
X75631Y86611D01*
X75621Y86621D01*
X75557Y86694D01*
X54927Y107324D01*
X54849Y107384D01*
X54777Y107452D01*
X54724Y107481D01*
X54676Y107518D01*
X54585Y107558D01*
X54498Y107606D01*
X54440Y107621D01*
X54384Y107645D01*
X54286Y107660D01*
X54190Y107685D01*
X54090Y107691D01*
X54070Y107695D01*
X54058Y107693D01*
X54030Y107695D01*
X52026Y107695D01*
X49599Y108701D01*
X47741Y110559D01*
X46735Y112986D01*
X46735Y115614D01*
X47741Y118041D01*
X49599Y119899D01*
X52026Y120905D01*
X54654Y120905D01*
X57081Y119899D01*
X58939Y118041D01*
X59945Y115614D01*
X59945Y113610D01*
X59957Y113512D01*
X59960Y113413D01*
X59977Y113355D01*
X59985Y113295D01*
X60021Y113203D01*
X60049Y113107D01*
X60079Y113055D01*
X60102Y112999D01*
X60160Y112919D01*
X60210Y112834D01*
X60276Y112758D01*
X60288Y112742D01*
X60298Y112734D01*
X60316Y112713D01*
X85027Y88002D01*
X85105Y87942D01*
X85177Y87874D01*
X85230Y87845D01*
X85278Y87808D01*
X85369Y87768D01*
X85456Y87720D01*
X85514Y87705D01*
X85570Y87681D01*
X85668Y87666D01*
X85764Y87641D01*
X85864Y87635D01*
X85884Y87631D01*
X85896Y87633D01*
X85924Y87631D01*
X89049Y87631D01*
X89079Y87634D01*
X89108Y87632D01*
X89236Y87654D01*
X89365Y87671D01*
X89392Y87681D01*
X89421Y87686D01*
X89540Y87740D01*
X89661Y87788D01*
X89684Y87805D01*
X89711Y87817D01*
X89813Y87898D01*
X89918Y87974D01*
X89937Y87997D01*
X89960Y88016D01*
X90038Y88119D01*
X90121Y88219D01*
X90133Y88246D01*
X90151Y88270D01*
X90222Y88414D01*
X90921Y90101D01*
X92779Y91959D01*
X95206Y92965D01*
X97834Y92965D01*
X100261Y91959D01*
X102119Y90101D01*
X103125Y87674D01*
X103125Y85046D01*
X102119Y82619D01*
X100261Y80761D01*
X97834Y79755D01*
X95206Y79755D01*
X94826Y79913D01*
X94817Y79915D01*
X94809Y79920D01*
X94665Y79957D01*
X94520Y79997D01*
X94510Y79997D01*
X94501Y79999D01*
X94341Y80009D01*
X82242Y80009D01*
X79074Y83177D01*
X79019Y83219D01*
X78971Y83269D01*
X78894Y83316D01*
X78823Y83371D01*
X78759Y83399D01*
X78699Y83436D01*
X78614Y83462D01*
X78531Y83498D01*
X78462Y83509D01*
X78396Y83529D01*
X78306Y83534D01*
X78217Y83548D01*
X78147Y83541D01*
X78078Y83544D01*
X77990Y83526D01*
X77900Y83518D01*
X77835Y83494D01*
X77766Y83480D01*
X77686Y83441D01*
X77601Y83410D01*
X77543Y83371D01*
X77481Y83340D01*
X77412Y83282D01*
X77338Y83232D01*
X77292Y83179D01*
X77239Y83134D01*
X77187Y83061D01*
X77128Y82993D01*
X77096Y82931D01*
X77056Y82874D01*
X77024Y82790D01*
X76983Y82710D01*
X76968Y82642D01*
X76943Y82577D01*
X76933Y82487D01*
X76913Y82400D01*
X76915Y82330D01*
X76908Y82261D01*
X76920Y82172D01*
X76923Y82082D01*
X76942Y82015D01*
X76952Y81946D01*
X77004Y81793D01*
X77725Y80054D01*
X77725Y77426D01*
X76719Y74999D01*
X75302Y73582D01*
X75242Y73504D01*
X75174Y73432D01*
X75145Y73379D01*
X75108Y73331D01*
X75068Y73240D01*
X75020Y73153D01*
X75005Y73095D01*
X74981Y73039D01*
X74966Y72941D01*
X74941Y72845D01*
X74935Y72745D01*
X74931Y72725D01*
X74933Y72712D01*
X74931Y72684D01*
X74931Y46696D01*
X74943Y46597D01*
X74946Y46498D01*
X74963Y46440D01*
X74971Y46380D01*
X75007Y46288D01*
X75035Y46193D01*
X75065Y46141D01*
X75088Y46084D01*
X75146Y46004D01*
X75196Y45919D01*
X75262Y45843D01*
X75274Y45827D01*
X75284Y45819D01*
X75302Y45798D01*
X76719Y44381D01*
X77725Y41954D01*
X77725Y39326D01*
X76719Y36899D01*
X74861Y35041D01*
X72434Y34035D01*
X69806Y34035D01*
X67716Y34901D01*
X67668Y34914D01*
X67623Y34935D01*
X67515Y34956D01*
X67409Y34985D01*
X67359Y34986D01*
X67310Y34995D01*
X67201Y34988D01*
X67091Y34990D01*
X67043Y34979D01*
X66993Y34976D01*
X66889Y34942D01*
X66782Y34916D01*
X66738Y34893D01*
X66691Y34877D01*
X66598Y34819D01*
X66501Y34767D01*
X66464Y34734D01*
X66422Y34707D01*
X66347Y34627D01*
X66265Y34553D01*
X66238Y34512D01*
X66204Y34476D01*
X66151Y34380D01*
X66091Y34288D01*
X66074Y34241D01*
X66050Y34197D01*
X66023Y34091D01*
X65987Y33987D01*
X65983Y33937D01*
X65971Y33889D01*
X65961Y33729D01*
X65961Y15759D01*
X64414Y12024D01*
X61556Y9166D01*
X57821Y7619D01*
X53779Y7619D01*
G37*
%LPD*%
%LPC*%
G36*
X644668Y353059D02*
X644668Y353059D01*
X639067Y355380D01*
X634780Y359667D01*
X632459Y365268D01*
X632459Y371332D01*
X634780Y376933D01*
X639067Y381220D01*
X644668Y383541D01*
X676132Y383541D01*
X681733Y381220D01*
X686020Y376933D01*
X688341Y371332D01*
X688341Y365268D01*
X686020Y359667D01*
X681733Y355380D01*
X676132Y353059D01*
X644668Y353059D01*
G37*
%LPD*%
%LPC*%
G36*
X644668Y48259D02*
X644668Y48259D01*
X639067Y50580D01*
X634780Y54867D01*
X632459Y60468D01*
X632459Y66532D01*
X634780Y72133D01*
X639067Y76420D01*
X644668Y78741D01*
X676132Y78741D01*
X681733Y76420D01*
X686020Y72133D01*
X688341Y66532D01*
X688341Y60468D01*
X686020Y54867D01*
X681733Y50580D01*
X676132Y48259D01*
X644668Y48259D01*
G37*
%LPD*%
%LPC*%
G36*
X24259Y341239D02*
X24259Y341239D01*
X20524Y342786D01*
X17666Y345644D01*
X16119Y349379D01*
X16119Y353421D01*
X17666Y357156D01*
X20524Y360014D01*
X24259Y361561D01*
X43541Y361561D01*
X47276Y360014D01*
X48978Y358312D01*
X49087Y358227D01*
X49194Y358138D01*
X49213Y358129D01*
X49229Y358117D01*
X49357Y358062D01*
X49482Y358003D01*
X49502Y357999D01*
X49521Y357991D01*
X49659Y357969D01*
X49795Y357943D01*
X49815Y357944D01*
X49835Y357941D01*
X49974Y357954D01*
X50112Y357962D01*
X50131Y357969D01*
X50151Y357971D01*
X50283Y358018D01*
X50414Y358061D01*
X50432Y358071D01*
X50451Y358078D01*
X50566Y358156D01*
X50683Y358231D01*
X50697Y358245D01*
X50714Y358257D01*
X50806Y358361D01*
X50901Y358462D01*
X50911Y358480D01*
X50924Y358495D01*
X50988Y358619D01*
X51055Y358741D01*
X51060Y358760D01*
X51069Y358778D01*
X51099Y358914D01*
X51134Y359049D01*
X51136Y359077D01*
X51139Y359089D01*
X51138Y359109D01*
X51144Y359209D01*
X51144Y361994D01*
X52150Y364421D01*
X54008Y366279D01*
X56435Y367285D01*
X58439Y367285D01*
X58537Y367297D01*
X58636Y367300D01*
X58694Y367317D01*
X58754Y367325D01*
X58846Y367361D01*
X58942Y367389D01*
X58994Y367419D01*
X59050Y367442D01*
X59130Y367500D01*
X59215Y367550D01*
X59291Y367616D01*
X59307Y367628D01*
X59315Y367638D01*
X59336Y367656D01*
X99351Y407671D01*
X123484Y407671D01*
X123583Y407683D01*
X123682Y407686D01*
X123740Y407703D01*
X123800Y407711D01*
X123892Y407747D01*
X123987Y407775D01*
X124039Y407805D01*
X124096Y407828D01*
X124176Y407886D01*
X124261Y407936D01*
X124337Y408002D01*
X124353Y408014D01*
X124361Y408024D01*
X124382Y408042D01*
X125799Y409459D01*
X128226Y410465D01*
X130854Y410465D01*
X133281Y409459D01*
X135139Y407601D01*
X136145Y405174D01*
X136145Y402546D01*
X135139Y400119D01*
X133281Y398261D01*
X130854Y397255D01*
X128226Y397255D01*
X125799Y398261D01*
X124382Y399678D01*
X124304Y399738D01*
X124232Y399806D01*
X124179Y399835D01*
X124131Y399872D01*
X124040Y399912D01*
X123953Y399960D01*
X123895Y399975D01*
X123839Y399999D01*
X123741Y400014D01*
X123645Y400039D01*
X123545Y400045D01*
X123525Y400049D01*
X123512Y400047D01*
X123484Y400049D01*
X103033Y400049D01*
X102935Y400037D01*
X102836Y400034D01*
X102778Y400017D01*
X102718Y400009D01*
X102626Y399973D01*
X102530Y399945D01*
X102478Y399915D01*
X102422Y399892D01*
X102342Y399834D01*
X102257Y399784D01*
X102181Y399718D01*
X102165Y399706D01*
X102157Y399696D01*
X102136Y399678D01*
X64725Y362267D01*
X64665Y362189D01*
X64597Y362117D01*
X64568Y362064D01*
X64531Y362016D01*
X64491Y361925D01*
X64443Y361838D01*
X64428Y361780D01*
X64404Y361724D01*
X64389Y361626D01*
X64364Y361530D01*
X64358Y361430D01*
X64354Y361410D01*
X64356Y361398D01*
X64354Y361370D01*
X64354Y359366D01*
X63348Y356939D01*
X61490Y355081D01*
X59063Y354075D01*
X56435Y354075D01*
X54008Y355081D01*
X53374Y355715D01*
X53319Y355758D01*
X53270Y355808D01*
X53193Y355855D01*
X53122Y355910D01*
X53058Y355937D01*
X52999Y355974D01*
X52913Y356000D01*
X52831Y356036D01*
X52762Y356047D01*
X52695Y356068D01*
X52605Y356072D01*
X52517Y356086D01*
X52447Y356079D01*
X52377Y356083D01*
X52290Y356065D01*
X52200Y356056D01*
X52134Y356032D01*
X52066Y356018D01*
X51985Y355979D01*
X51901Y355949D01*
X51843Y355909D01*
X51780Y355879D01*
X51712Y355820D01*
X51637Y355770D01*
X51591Y355718D01*
X51538Y355672D01*
X51486Y355599D01*
X51427Y355532D01*
X51395Y355469D01*
X51355Y355412D01*
X51323Y355328D01*
X51282Y355248D01*
X51267Y355180D01*
X51242Y355115D01*
X51232Y355026D01*
X51213Y354938D01*
X51215Y354868D01*
X51207Y354799D01*
X51220Y354710D01*
X51222Y354620D01*
X51242Y354553D01*
X51252Y354484D01*
X51304Y354332D01*
X51681Y353421D01*
X51681Y349379D01*
X50134Y345644D01*
X47276Y342786D01*
X43541Y341239D01*
X24259Y341239D01*
G37*
%LPD*%
%LPC*%
G36*
X684462Y178815D02*
X684462Y178815D01*
X682035Y179821D01*
X680177Y181679D01*
X679171Y184106D01*
X679171Y186110D01*
X679159Y186208D01*
X679156Y186307D01*
X679139Y186365D01*
X679131Y186425D01*
X679095Y186517D01*
X679067Y186613D01*
X679037Y186665D01*
X679014Y186721D01*
X678956Y186801D01*
X678906Y186886D01*
X678840Y186962D01*
X678828Y186978D01*
X678818Y186986D01*
X678800Y187007D01*
X674409Y191398D01*
X674331Y191458D01*
X674259Y191526D01*
X674206Y191555D01*
X674158Y191592D01*
X674067Y191632D01*
X673980Y191680D01*
X673922Y191695D01*
X673866Y191719D01*
X673768Y191734D01*
X673672Y191759D01*
X673572Y191765D01*
X673552Y191769D01*
X673540Y191767D01*
X673512Y191769D01*
X587716Y191769D01*
X587617Y191757D01*
X587518Y191754D01*
X587460Y191737D01*
X587400Y191729D01*
X587308Y191693D01*
X587213Y191665D01*
X587161Y191635D01*
X587104Y191612D01*
X587024Y191554D01*
X586939Y191504D01*
X586863Y191438D01*
X586847Y191426D01*
X586839Y191416D01*
X586818Y191398D01*
X585401Y189981D01*
X582974Y188975D01*
X580346Y188975D01*
X577919Y189981D01*
X576061Y191839D01*
X575055Y194266D01*
X575055Y196894D01*
X576061Y199321D01*
X577919Y201179D01*
X580346Y202185D01*
X582974Y202185D01*
X585401Y201179D01*
X586818Y199762D01*
X586896Y199702D01*
X586968Y199634D01*
X587021Y199605D01*
X587069Y199568D01*
X587160Y199528D01*
X587247Y199480D01*
X587305Y199465D01*
X587361Y199441D01*
X587459Y199426D01*
X587555Y199401D01*
X587655Y199395D01*
X587675Y199391D01*
X587688Y199393D01*
X587716Y199391D01*
X677194Y199391D01*
X684189Y192396D01*
X684267Y192336D01*
X684339Y192268D01*
X684392Y192239D01*
X684440Y192202D01*
X684531Y192162D01*
X684618Y192114D01*
X684676Y192099D01*
X684732Y192075D01*
X684830Y192060D01*
X684926Y192035D01*
X685026Y192029D01*
X685046Y192025D01*
X685058Y192027D01*
X685086Y192025D01*
X687090Y192025D01*
X689517Y191019D01*
X691375Y189161D01*
X692381Y186734D01*
X692381Y184106D01*
X691375Y181679D01*
X689517Y179821D01*
X687090Y178815D01*
X684462Y178815D01*
G37*
%LPD*%
%LPC*%
G36*
X542246Y79755D02*
X542246Y79755D01*
X539819Y80761D01*
X537961Y82619D01*
X536955Y85046D01*
X536955Y87674D01*
X537961Y90101D01*
X539819Y91959D01*
X542246Y92965D01*
X544250Y92965D01*
X544348Y92977D01*
X544447Y92980D01*
X544505Y92997D01*
X544565Y93005D01*
X544657Y93041D01*
X544753Y93069D01*
X544805Y93099D01*
X544861Y93122D01*
X544941Y93180D01*
X545026Y93230D01*
X545102Y93296D01*
X545118Y93308D01*
X545126Y93318D01*
X545147Y93336D01*
X567318Y115507D01*
X567378Y115585D01*
X567446Y115657D01*
X567475Y115710D01*
X567512Y115758D01*
X567552Y115849D01*
X567600Y115936D01*
X567615Y115994D01*
X567639Y116050D01*
X567654Y116148D01*
X567679Y116244D01*
X567685Y116344D01*
X567689Y116364D01*
X567687Y116376D01*
X567689Y116404D01*
X567689Y136185D01*
X567677Y136283D01*
X567674Y136382D01*
X567657Y136440D01*
X567649Y136500D01*
X567613Y136592D01*
X567585Y136687D01*
X567555Y136739D01*
X567532Y136796D01*
X567474Y136876D01*
X567424Y136961D01*
X567358Y137036D01*
X567346Y137053D01*
X567336Y137061D01*
X567318Y137082D01*
X565901Y138499D01*
X564895Y140926D01*
X564895Y143554D01*
X565901Y145981D01*
X567759Y147839D01*
X570186Y148845D01*
X572814Y148845D01*
X575241Y147839D01*
X577099Y145981D01*
X578105Y143554D01*
X578105Y140926D01*
X577099Y138499D01*
X575682Y137082D01*
X575622Y137004D01*
X575554Y136932D01*
X575525Y136879D01*
X575488Y136831D01*
X575448Y136740D01*
X575400Y136653D01*
X575385Y136595D01*
X575361Y136539D01*
X575346Y136441D01*
X575321Y136345D01*
X575315Y136245D01*
X575311Y136225D01*
X575313Y136213D01*
X575311Y136185D01*
X575311Y112722D01*
X550536Y87947D01*
X550476Y87869D01*
X550408Y87797D01*
X550379Y87744D01*
X550342Y87696D01*
X550302Y87605D01*
X550254Y87518D01*
X550239Y87460D01*
X550215Y87404D01*
X550200Y87306D01*
X550175Y87211D01*
X550169Y87110D01*
X550165Y87090D01*
X550167Y87078D01*
X550165Y87050D01*
X550165Y85046D01*
X549159Y82619D01*
X547301Y80761D01*
X544874Y79755D01*
X542246Y79755D01*
G37*
%LPD*%
%LPC*%
G36*
X24259Y366639D02*
X24259Y366639D01*
X20524Y368186D01*
X17666Y371044D01*
X16119Y374779D01*
X16119Y378821D01*
X17666Y382556D01*
X20524Y385414D01*
X24259Y386961D01*
X43541Y386961D01*
X47276Y385414D01*
X50134Y382556D01*
X51681Y378821D01*
X51681Y374779D01*
X50134Y371044D01*
X47276Y368186D01*
X43541Y366639D01*
X24259Y366639D01*
G37*
%LPD*%
%LPC*%
G36*
X238159Y242639D02*
X238159Y242639D01*
X234424Y244186D01*
X231566Y247044D01*
X230019Y250779D01*
X230019Y254821D01*
X231566Y258556D01*
X234424Y261414D01*
X238159Y262961D01*
X257441Y262961D01*
X261176Y261414D01*
X264034Y258556D01*
X265581Y254821D01*
X265581Y250779D01*
X264034Y247044D01*
X261176Y244186D01*
X257441Y242639D01*
X238159Y242639D01*
G37*
%LPD*%
%LPC*%
G36*
X25839Y50959D02*
X25839Y50959D01*
X22104Y52506D01*
X19246Y55364D01*
X17699Y59099D01*
X17699Y78381D01*
X19246Y82116D01*
X22104Y84974D01*
X25839Y86521D01*
X29881Y86521D01*
X33616Y84974D01*
X36474Y82116D01*
X38021Y78381D01*
X38021Y59099D01*
X36474Y55364D01*
X33616Y52506D01*
X29881Y50959D01*
X25839Y50959D01*
G37*
%LPD*%
%LPC*%
G36*
X238159Y268039D02*
X238159Y268039D01*
X234424Y269586D01*
X231566Y272444D01*
X230019Y276179D01*
X230019Y280221D01*
X231566Y283956D01*
X234424Y286814D01*
X238159Y288361D01*
X257441Y288361D01*
X261176Y286814D01*
X264034Y283956D01*
X265581Y280221D01*
X265581Y276179D01*
X264034Y272444D01*
X261176Y269586D01*
X257441Y268039D01*
X238159Y268039D01*
G37*
%LPD*%
%LPC*%
G36*
X662939Y408939D02*
X662939Y408939D01*
X662939Y421641D01*
X674099Y421641D01*
X676080Y421380D01*
X678010Y420863D01*
X679855Y420098D01*
X681585Y419099D01*
X683170Y417883D01*
X684583Y416470D01*
X685799Y414885D01*
X686798Y413155D01*
X687563Y411310D01*
X688080Y409380D01*
X688138Y408939D01*
X662939Y408939D01*
G37*
%LPD*%
%LPC*%
G36*
X662939Y27939D02*
X662939Y27939D01*
X662939Y40641D01*
X674099Y40641D01*
X676080Y40380D01*
X678010Y39863D01*
X679855Y39098D01*
X681585Y38099D01*
X683170Y36883D01*
X684583Y35470D01*
X685799Y33885D01*
X686798Y32155D01*
X687563Y30310D01*
X688080Y28380D01*
X688138Y27939D01*
X662939Y27939D01*
G37*
%LPD*%
%LPC*%
G36*
X632662Y408939D02*
X632662Y408939D01*
X632720Y409380D01*
X633237Y411310D01*
X634002Y413155D01*
X635001Y414885D01*
X636217Y416470D01*
X637630Y417883D01*
X639215Y419099D01*
X640945Y420098D01*
X642790Y420863D01*
X644720Y421380D01*
X646701Y421641D01*
X657861Y421641D01*
X657861Y408939D01*
X632662Y408939D01*
G37*
%LPD*%
%LPC*%
G36*
X632662Y27939D02*
X632662Y27939D01*
X632720Y28380D01*
X633237Y30310D01*
X634002Y32155D01*
X635001Y33885D01*
X636217Y35470D01*
X637630Y36883D01*
X639215Y38099D01*
X640945Y39098D01*
X642790Y39863D01*
X644720Y40380D01*
X646701Y40641D01*
X657861Y40641D01*
X657861Y27939D01*
X632662Y27939D01*
G37*
%LPD*%
%LPC*%
G36*
X662939Y391159D02*
X662939Y391159D01*
X662939Y403861D01*
X688138Y403861D01*
X688080Y403420D01*
X687563Y401490D01*
X686798Y399645D01*
X685799Y397915D01*
X684583Y396330D01*
X683170Y394917D01*
X681585Y393701D01*
X679855Y392702D01*
X678010Y391937D01*
X676080Y391420D01*
X674099Y391159D01*
X662939Y391159D01*
G37*
%LPD*%
%LPC*%
G36*
X662939Y10159D02*
X662939Y10159D01*
X662939Y22861D01*
X688138Y22861D01*
X688080Y22420D01*
X687563Y20490D01*
X686798Y18645D01*
X685799Y16915D01*
X684583Y15330D01*
X683170Y13917D01*
X681585Y12701D01*
X679855Y11702D01*
X678010Y10937D01*
X676080Y10420D01*
X674099Y10159D01*
X662939Y10159D01*
G37*
%LPD*%
%LPC*%
G36*
X646701Y391159D02*
X646701Y391159D01*
X644720Y391420D01*
X642790Y391937D01*
X640945Y392702D01*
X639215Y393701D01*
X637630Y394917D01*
X636217Y396330D01*
X635001Y397915D01*
X634002Y399645D01*
X633237Y401490D01*
X632720Y403420D01*
X632662Y403861D01*
X657861Y403861D01*
X657861Y391159D01*
X646701Y391159D01*
G37*
%LPD*%
%LPC*%
G36*
X646701Y10159D02*
X646701Y10159D01*
X644720Y10420D01*
X642790Y10937D01*
X640945Y11702D01*
X639215Y12701D01*
X637630Y13917D01*
X636217Y15330D01*
X635001Y16915D01*
X634002Y18645D01*
X633237Y20490D01*
X632720Y22420D01*
X632662Y22861D01*
X657861Y22861D01*
X657861Y10159D01*
X646701Y10159D01*
G37*
%LPD*%
%LPC*%
G36*
X36439Y404739D02*
X36439Y404739D01*
X36439Y412361D01*
X42320Y412361D01*
X43899Y412111D01*
X45420Y411616D01*
X46845Y410890D01*
X48139Y409950D01*
X49270Y408819D01*
X50210Y407525D01*
X50936Y406100D01*
X51379Y404739D01*
X36439Y404739D01*
G37*
%LPD*%
%LPC*%
G36*
X32939Y27939D02*
X32939Y27939D01*
X32939Y42879D01*
X34300Y42436D01*
X35725Y41710D01*
X37019Y40770D01*
X38150Y39639D01*
X39090Y38345D01*
X39816Y36920D01*
X40311Y35399D01*
X40561Y33820D01*
X40561Y27939D01*
X32939Y27939D01*
G37*
%LPD*%
%LPC*%
G36*
X16421Y404739D02*
X16421Y404739D01*
X16864Y406100D01*
X17590Y407525D01*
X18530Y408819D01*
X19661Y409950D01*
X20955Y410890D01*
X22380Y411616D01*
X23901Y412111D01*
X25480Y412361D01*
X31361Y412361D01*
X31361Y404739D01*
X16421Y404739D01*
G37*
%LPD*%
%LPC*%
G36*
X55799Y66201D02*
X55799Y66201D01*
X63421Y66201D01*
X63421Y60320D01*
X63171Y58741D01*
X62676Y57220D01*
X61950Y55795D01*
X61010Y54501D01*
X59879Y53370D01*
X58585Y52430D01*
X57160Y51704D01*
X55799Y51261D01*
X55799Y66201D01*
G37*
%LPD*%
%LPC*%
G36*
X32939Y22861D02*
X32939Y22861D01*
X40561Y22861D01*
X40561Y16980D01*
X40311Y15401D01*
X39816Y13880D01*
X39090Y12455D01*
X38150Y11161D01*
X37019Y10030D01*
X35725Y9090D01*
X34300Y8364D01*
X32939Y7921D01*
X32939Y22861D01*
G37*
%LPD*%
%LPC*%
G36*
X36439Y392039D02*
X36439Y392039D01*
X36439Y399661D01*
X51379Y399661D01*
X50936Y398300D01*
X50210Y396875D01*
X49270Y395581D01*
X48139Y394450D01*
X46845Y393510D01*
X45420Y392784D01*
X43899Y392289D01*
X42320Y392039D01*
X36439Y392039D01*
G37*
%LPD*%
%LPC*%
G36*
X43099Y71279D02*
X43099Y71279D01*
X43099Y77160D01*
X43349Y78739D01*
X43844Y80260D01*
X44570Y81685D01*
X45510Y82979D01*
X46641Y84110D01*
X47935Y85050D01*
X49360Y85776D01*
X50721Y86219D01*
X50721Y71279D01*
X43099Y71279D01*
G37*
%LPD*%
%LPC*%
G36*
X20239Y27939D02*
X20239Y27939D01*
X20239Y33820D01*
X20489Y35399D01*
X20984Y36920D01*
X21710Y38345D01*
X22650Y39639D01*
X23781Y40770D01*
X25075Y41710D01*
X26500Y42436D01*
X27861Y42879D01*
X27861Y27939D01*
X20239Y27939D01*
G37*
%LPD*%
%LPC*%
G36*
X25480Y392039D02*
X25480Y392039D01*
X23901Y392289D01*
X22380Y392784D01*
X20955Y393510D01*
X19661Y394450D01*
X18530Y395581D01*
X17590Y396875D01*
X16864Y398300D01*
X16421Y399661D01*
X31361Y399661D01*
X31361Y392039D01*
X25480Y392039D01*
G37*
%LPD*%
%LPC*%
G36*
X49360Y51704D02*
X49360Y51704D01*
X47935Y52430D01*
X46641Y53370D01*
X45510Y54501D01*
X44570Y55795D01*
X43844Y57220D01*
X43349Y58741D01*
X43099Y60320D01*
X43099Y66201D01*
X50721Y66201D01*
X50721Y51261D01*
X49360Y51704D01*
G37*
%LPD*%
%LPC*%
G36*
X26500Y8364D02*
X26500Y8364D01*
X25075Y9090D01*
X23781Y10030D01*
X22650Y11161D01*
X21710Y12455D01*
X20984Y13880D01*
X20489Y15401D01*
X20239Y16980D01*
X20239Y22861D01*
X27861Y22861D01*
X27861Y7921D01*
X26500Y8364D01*
G37*
%LPD*%
%LPC*%
G36*
X660399Y406399D02*
X660399Y406399D01*
X660399Y406401D01*
X660401Y406401D01*
X660401Y406399D01*
X660399Y406399D01*
G37*
%LPD*%
%LPC*%
G36*
X33899Y402199D02*
X33899Y402199D01*
X33899Y402201D01*
X33901Y402201D01*
X33901Y402199D01*
X33899Y402199D01*
G37*
%LPD*%
%LPC*%
G36*
X53259Y68739D02*
X53259Y68739D01*
X53259Y68741D01*
X53261Y68741D01*
X53261Y68739D01*
X53259Y68739D01*
G37*
%LPD*%
%LPC*%
G36*
X660399Y25399D02*
X660399Y25399D01*
X660399Y25401D01*
X660401Y25401D01*
X660401Y25399D01*
X660399Y25399D01*
G37*
%LPD*%
%LPC*%
G36*
X30399Y25399D02*
X30399Y25399D01*
X30399Y25401D01*
X30401Y25401D01*
X30401Y25399D01*
X30399Y25399D01*
G37*
%LPD*%
D10*
X41520Y351400D02*
X26280Y351400D01*
X26280Y376800D02*
X41520Y376800D01*
X41520Y402200D02*
X26280Y402200D01*
X240180Y227400D02*
X255420Y227400D01*
X255420Y252800D02*
X240180Y252800D01*
X240180Y278200D02*
X255420Y278200D01*
D11*
X647700Y368300D02*
X673100Y368300D01*
X673100Y406400D02*
X647700Y406400D01*
X647700Y63500D02*
X673100Y63500D01*
X673100Y25400D02*
X647700Y25400D01*
D10*
X55800Y33020D02*
X55800Y17780D01*
X30400Y17780D02*
X30400Y33020D01*
X27860Y61120D02*
X27860Y76360D01*
X53260Y76360D02*
X53260Y61120D01*
D12*
X604520Y83820D03*
D13*
X624840Y63500D01*
D12*
X624840Y48260D03*
D13*
X624840Y63500D01*
D12*
X261620Y106680D03*
X482600Y345440D03*
X17780Y297180D03*
X20320Y127000D03*
X447040Y17780D03*
X411480Y17780D03*
X381000Y17780D03*
X612140Y365760D03*
X548640Y177800D03*
X594360Y134620D03*
X581660Y363220D03*
X154940Y424180D03*
X99060Y419100D03*
X160020Y48260D03*
X53340Y114300D03*
D13*
X83820Y83820D01*
X96520Y83820D01*
X96520Y86360D01*
D12*
X96520Y86360D03*
X474980Y307340D03*
X76200Y147320D03*
D13*
X317246Y226782D02*
X321858Y231394D01*
X399034Y231394D02*
X474980Y307340D01*
X317246Y199430D02*
X265136Y147320D01*
X76200Y147320D01*
X321858Y231394D02*
X399034Y231394D01*
X317246Y226782D02*
X317246Y199430D01*
D12*
X137160Y121920D03*
D13*
X73660Y121920D01*
X15240Y180340D01*
X15240Y248920D02*
X27940Y261620D01*
D12*
X27940Y261620D03*
D13*
X15240Y248920D02*
X15240Y180340D01*
D12*
X71120Y78740D03*
D13*
X71120Y40640D01*
D12*
X71120Y40640D03*
X48260Y271780D03*
D13*
X48260Y162560D01*
X55626Y155194D02*
X139700Y155194D01*
D12*
X139700Y155194D03*
D13*
X55626Y155194D02*
X48260Y162560D01*
D12*
X57749Y360680D03*
D13*
X100929Y403860D01*
D12*
X129540Y403860D03*
D13*
X100929Y403860D01*
D12*
X294640Y187960D03*
X66040Y195580D03*
D13*
X143550Y195580D01*
X161838Y213868D01*
X268732Y213868D01*
X294640Y187960D01*
D12*
X165100Y205994D03*
D13*
X160020Y200914D01*
X160020Y160020D01*
D12*
X68580Y163068D03*
D13*
X146010Y160020D02*
X160020Y160020D01*
X146010Y160020D02*
X142962Y163068D01*
X68580Y163068D01*
D12*
X495300Y279400D03*
D13*
X482854Y310602D02*
X478242Y315214D01*
X380746Y315214D01*
X482854Y291846D02*
X495300Y279400D01*
X482854Y291846D02*
X482854Y310602D01*
X375920Y320040D02*
X375920Y370840D01*
X251460Y370840D01*
X248920Y368300D01*
D12*
X248920Y368300D03*
D13*
X375920Y320040D02*
X380746Y315214D01*
D12*
X76200Y254000D03*
X33020Y233680D03*
D13*
X56134Y275042D02*
X51522Y279654D01*
X44998Y279654D01*
X40386Y275042D01*
X56134Y274066D02*
X76200Y254000D01*
X56134Y274066D02*
X56134Y275042D01*
X40386Y241046D02*
X33020Y233680D01*
X40386Y241046D02*
X40386Y275042D01*
D12*
X581660Y195580D03*
D13*
X675616Y195580D02*
X685776Y185420D01*
D12*
X685776Y185420D03*
D13*
X675616Y195580D02*
X581660Y195580D01*
D12*
X571500Y142240D03*
D13*
X571500Y114300D01*
X543560Y86360D01*
D12*
X543560Y86360D03*
X495300Y213360D03*
D13*
X335280Y213360D01*
X325120Y223520D01*
D12*
X325120Y223520D03*
M02*
